<svg width="50" height="50" viewBox="0 0 50 50" fill="none" xmlns="http://www.w3.org/2000/svg">
<path fill-rule="evenodd" clip-rule="evenodd" d="M7.5 0H42.5C46.6421 0 50 3.35786 50 7.5V42.5C50 46.6421 46.6421 50 42.5 50H7.5C3.35786 50 0 46.6421 0 42.5V7.5C0 3.35786 3.35786 0 7.5 0ZM5.46875 28.5156L5.76172 26.3672C5.76172 26.0742 6.05469 26.0742 6.05469 26.3672L6.34766 28.5156L6.05469 30.6641C6.05469 30.8594 5.76172 30.8594 5.76172 30.6641L5.46875 28.5156ZM7.22656 25C7.22656 24.707 7.51953 24.707 7.51953 25L7.91016 28.5156L7.51953 31.9336C7.51953 32.2266 7.12891 32.2266 7.12891 31.9336L6.73828 28.5156L7.22656 25ZM12.9883 28.5156L13.2812 22.0703C13.2812 21.582 13.8672 21.582 13.8672 22.0703L14.2578 28.5156L13.8672 32.4219C13.8672 33.2031 13.1836 33.2031 13.1836 32.4219L12.9883 28.5156ZM9.86328 28.5156L10.2539 24.2187C10.2539 23.9258 10.6445 23.9258 10.6445 24.2187L11.0352 28.5156L10.6445 32.4219C10.6445 33.0078 10.1562 33.0078 10.1562 32.4219L9.86328 28.5156ZM17.3828 28.5156L17.0898 32.4219C17.0898 33.2031 16.3086 33.2031 16.3086 32.4219L16.1133 28.5156L16.4062 19.9219C16.4062 19.3359 17.0898 19.3359 17.0898 19.9219L17.3828 28.5156ZM23.9258 28.5156L23.7305 32.4219C23.7305 33.2031 22.7539 33.2031 22.7539 32.4219L22.5586 28.5156L22.7539 18.5547C22.7539 17.8711 23.7305 17.8711 23.7305 18.5547L23.9258 28.5156ZM20.7031 28.5156L20.4102 32.4219C20.4102 33.2031 19.5312 33.2031 19.5312 32.4219L19.3359 28.5156L19.5312 19.8242C19.5312 19.2383 20.4102 19.2383 20.4102 19.8242L20.7031 28.5156ZM12.5977 28.5156L12.3047 32.4219C12.3047 33.1055 11.7188 33.1055 11.7188 32.4219L11.4258 28.5156L11.7188 24.5117C11.7188 24.2187 12.3047 24.2187 12.3047 24.5117L12.5977 28.5156ZM9.47266 28.5156L9.08203 32.4219C9.08203 32.8125 8.69141 32.8125 8.69141 32.4219L8.30078 28.5156L8.69141 24.3164C8.69141 24.0234 9.08203 24.0234 9.08203 24.3164L9.47266 28.5156ZM20.9961 28.5156L21.1914 20.2148C21.1914 19.5312 22.0703 19.5312 22.0703 20.2148L22.2656 28.5156L22.0703 32.4219C22.0703 33.2031 21.0938 33.2031 21.0938 32.4219L20.9961 28.5156ZM15.8203 28.5156L15.5273 32.4219C15.5273 33.2031 14.7461 33.2031 14.7461 32.4219L14.5508 28.5156L14.8438 20.6055C14.8438 20.0195 15.5273 20.0195 15.5273 20.6055L15.8203 28.5156ZM19.043 28.5156L18.75 32.4219C18.75 33.2031 17.9688 33.2031 17.9688 32.4219L17.6758 28.5156L17.9688 19.6289C17.9688 19.043 18.75 19.043 18.75 19.6289L19.043 28.5156ZM26.3672 16.6016C31.6406 14.5508 37.4023 18.1641 37.8906 23.7305C41.1133 22.6562 44.5312 24.6094 44.5312 28.2226C44.5312 30.8594 42.3828 33.0078 39.7461 33.0078H26.3672C26.0742 33.0078 25.8789 32.7148 25.8789 32.4219V17.1875C25.8789 16.8945 25.9766 16.7969 26.3672 16.6016ZM24.1211 28.5156L24.4141 17.6758C24.4141 16.9922 25.3906 16.9922 25.3906 17.6758L25.6836 28.5156L25.3906 32.4219C25.3906 33.2031 24.4141 33.2031 24.4141 32.4219L24.1211 28.5156Z" fill="#FEFCFB"/>
</svg>
