<svg width="116" height="25" viewBox="0 0 116 25" fill="none" xmlns="http://www.w3.org/2000/svg">
<path d="M5.35 19.875V2.775H0V2.65L1.0125 0.5H13.2V0.625L12.1875 2.775H7.85V18.75L5.475 19.875H5.35Z" fill="#0A100D"/>
<path d="M12.8875 19.875V9.375C12.8875 6.875 14.1375 5.625 16.6375 5.625H19.7625V5.75L18.7625 7.875H16.6375C15.8042 7.875 15.3875 8.375 15.3875 9.375V18.75L13.0125 19.875H12.8875Z" fill="#0A100D"/>
<path d="M25.0125 17.125H27.6375C28.4708 17.125 28.8875 16.625 28.8875 15.625V13.9125C28.8875 12.9125 28.4708 12.4125 27.6375 12.4125H25.0125C24.1792 12.4125 23.7625 12.9125 23.7625 13.9125V15.625C23.7625 16.625 24.1792 17.125 25.0125 17.125ZM25.0125 19.375C22.5125 19.375 21.2625 18.125 21.2625 15.625V13.9125C21.2625 11.4125 22.5125 10.1625 25.0125 10.1625H27.6375C28.0708 10.1625 28.4875 10.2875 28.8875 10.5375V9.375C28.8875 8.375 28.4708 7.875 27.6375 7.875H23.1625V7.75L24.1625 5.625H27.6375C30.1375 5.625 31.3875 6.875 31.3875 9.375V18.75L29.0125 19.875H28.8875V19C28.5708 19.25 28.1542 19.375 27.6375 19.375H25.0125Z" fill="#0A100D"/>
<path d="M39.5125 19.375C38.9458 19.375 38.5292 19.2458 38.2625 18.9875V23.875L35.8875 25H35.7625V9.375C35.7625 6.875 37.0125 5.625 39.5125 5.625H42.3875C44.8875 5.625 46.1375 6.875 46.1375 9.375V15.625C46.1375 18.125 44.8875 19.375 42.3875 19.375H39.5125ZM39.5125 17.125H42.3875C43.2208 17.125 43.6375 16.625 43.6375 15.625V9.375C43.6375 8.375 43.2208 7.875 42.3875 7.875H39.5125C38.6792 7.875 38.2625 8.375 38.2625 9.375V15.625C38.2625 16.625 38.6792 17.125 39.5125 17.125Z" fill="#0A100D"/>
<path d="M63.425 19.875V2.775H58.075V2.65L59.0875 0.5H71.275V0.625L70.2625 2.775H65.925V18.75L63.55 19.875H63.425Z" fill="#0A100D"/>
<path d="M74.0875 17.125H76.7125C77.5458 17.125 77.9625 16.625 77.9625 15.625V13.9125C77.9625 12.9125 77.5458 12.4125 76.7125 12.4125H74.0875C73.2542 12.4125 72.8375 12.9125 72.8375 13.9125V15.625C72.8375 16.625 73.2542 17.125 74.0875 17.125ZM74.0875 19.375C71.5875 19.375 70.3375 18.125 70.3375 15.625V13.9125C70.3375 11.4125 71.5875 10.1625 74.0875 10.1625H76.7125C77.1458 10.1625 77.5625 10.2875 77.9625 10.5375V9.375C77.9625 8.375 77.5458 7.875 76.7125 7.875H72.2375V7.75L73.2375 5.625H76.7125C79.2125 5.625 80.4625 6.875 80.4625 9.375V18.75L78.0875 19.875H77.9625V19C77.6458 19.25 77.2292 19.375 76.7125 19.375H74.0875Z" fill="#0A100D"/>
<path d="M84.8375 19.875V1.125L87.2125 0H87.3375V18.75L84.9625 19.875H84.8375Z" fill="#0A100D"/>
<path d="M95.4625 19.375C92.9625 19.375 91.7125 18.125 91.7125 15.625V9.375C91.7125 6.875 92.9625 5.625 95.4625 5.625H98.3375C100.837 5.625 102.087 6.875 102.087 9.375V10.0375L94.25 16.1C94.3667 16.7833 94.7708 17.125 95.4625 17.125H98.3375C99.1708 17.125 99.5875 16.625 99.5875 15.625V14.9625L101.962 13.8375H102.087V15.625C102.087 18.125 100.837 19.375 98.3375 19.375H95.4625ZM94.2125 13.4875L99.575 9.1625C99.525 8.30417 99.1125 7.875 98.3375 7.875H95.4625C94.6292 7.875 94.2125 8.375 94.2125 9.375V13.4875Z" fill="#0A100D"/>
<path d="M109.212 19.375C106.712 19.375 105.462 18.125 105.462 15.625V15.175L107.837 14.05H107.962V15.625C107.962 16.625 108.379 17.125 109.212 17.125H112.087C112.921 17.125 113.337 16.625 113.337 15.625V14.6375C113.337 13.6375 112.921 13.1375 112.087 13.1375H109.737C107.237 13.1375 105.987 11.8833 105.987 9.375C105.987 6.875 107.237 5.625 109.737 5.625H111.2C113.7 5.625 114.95 6.63333 114.95 8.65L112.575 9.775H112.45V9.375C112.45 8.375 112.033 7.875 111.2 7.875H109.737C108.904 7.875 108.487 8.375 108.487 9.375C108.487 10.3833 108.904 10.8875 109.737 10.8875H112.087C114.587 10.8875 115.837 12.1375 115.837 14.6375V15.625C115.837 18.125 114.587 19.375 112.087 19.375H109.212Z" fill="#0A100D"/>
</svg>
