<svg width="116" height="26" viewBox="0 0 116 26" fill="none" xmlns="http://www.w3.org/2000/svg">
<path d="M5.40859 20.7109V3.61094H0.0585938V3.48594L1.07109 1.33594H13.2586V1.46094L12.2461 3.61094H7.90859V19.5859L5.53359 20.7109H5.40859Z" fill="#FEFCFB"/>
<path d="M12.9461 20.7109V10.2109C12.9461 7.71094 14.1961 6.46094 16.6961 6.46094H19.8211V6.58594L18.8211 8.71094H16.6961C15.8628 8.71094 15.4461 9.21094 15.4461 10.2109V19.5859L13.0711 20.7109H12.9461Z" fill="#FEFCFB"/>
<path d="M25.0711 17.9609H27.6961C28.5294 17.9609 28.9461 17.4609 28.9461 16.4609V14.7484C28.9461 13.7484 28.5294 13.2484 27.6961 13.2484H25.0711C24.2378 13.2484 23.8211 13.7484 23.8211 14.7484V16.4609C23.8211 17.4609 24.2378 17.9609 25.0711 17.9609ZM25.0711 20.2109C22.5711 20.2109 21.3211 18.9609 21.3211 16.4609V14.7484C21.3211 12.2484 22.5711 10.9984 25.0711 10.9984H27.6961C28.1294 10.9984 28.5461 11.1234 28.9461 11.3734V10.2109C28.9461 9.21094 28.5294 8.71094 27.6961 8.71094H23.2211V8.58594L24.2211 6.46094H27.6961C30.1961 6.46094 31.4461 7.71094 31.4461 10.2109V19.5859L29.0711 20.7109H28.9461V19.8359C28.6294 20.0859 28.2128 20.2109 27.6961 20.2109H25.0711Z" fill="#FEFCFB"/>
<path d="M39.5711 20.2109C39.0044 20.2109 38.5878 20.0818 38.3211 19.8234V24.7109L35.9461 25.8359H35.8211V10.2109C35.8211 7.71094 37.0711 6.46094 39.5711 6.46094H42.4461C44.9461 6.46094 46.1961 7.71094 46.1961 10.2109V16.4609C46.1961 18.9609 44.9461 20.2109 42.4461 20.2109H39.5711ZM39.5711 17.9609H42.4461C43.2794 17.9609 43.6961 17.4609 43.6961 16.4609V10.2109C43.6961 9.21094 43.2794 8.71094 42.4461 8.71094H39.5711C38.7378 8.71094 38.3211 9.21094 38.3211 10.2109V16.4609C38.3211 17.4609 38.7378 17.9609 39.5711 17.9609Z" fill="#FEFCFB"/>
<path d="M63.4836 20.7109V3.61094H58.1336V3.48594L59.1461 1.33594H71.3336V1.46094L70.3211 3.61094H65.9836V19.5859L63.6086 20.7109H63.4836Z" fill="#FEFCFB"/>
<path d="M74.1461 17.9609H76.7711C77.6044 17.9609 78.0211 17.4609 78.0211 16.4609V14.7484C78.0211 13.7484 77.6044 13.2484 76.7711 13.2484H74.1461C73.3128 13.2484 72.8961 13.7484 72.8961 14.7484V16.4609C72.8961 17.4609 73.3128 17.9609 74.1461 17.9609ZM74.1461 20.2109C71.6461 20.2109 70.3961 18.9609 70.3961 16.4609V14.7484C70.3961 12.2484 71.6461 10.9984 74.1461 10.9984H76.7711C77.2044 10.9984 77.6211 11.1234 78.0211 11.3734V10.2109C78.0211 9.21094 77.6044 8.71094 76.7711 8.71094H72.2961V8.58594L73.2961 6.46094H76.7711C79.2711 6.46094 80.5211 7.71094 80.5211 10.2109V19.5859L78.1461 20.7109H78.0211V19.8359C77.7044 20.0859 77.2878 20.2109 76.7711 20.2109H74.1461Z" fill="#FEFCFB"/>
<path d="M84.8961 20.7109V1.96094L87.2711 0.835938H87.3961V19.5859L85.0211 20.7109H84.8961Z" fill="#FEFCFB"/>
<path d="M95.5211 20.2109C93.0211 20.2109 91.7711 18.9609 91.7711 16.4609V10.2109C91.7711 7.71094 93.0211 6.46094 95.5211 6.46094H98.3961C100.896 6.46094 102.146 7.71094 102.146 10.2109V10.8734L94.3086 16.9359C94.4253 17.6193 94.8294 17.9609 95.5211 17.9609H98.3961C99.2294 17.9609 99.6461 17.4609 99.6461 16.4609V15.7984L102.021 14.6734H102.146V16.4609C102.146 18.9609 100.896 20.2109 98.3961 20.2109H95.5211ZM94.2711 14.3234L99.6336 9.99844C99.5836 9.1401 99.1711 8.71094 98.3961 8.71094H95.5211C94.6878 8.71094 94.2711 9.21094 94.2711 10.2109V14.3234Z" fill="#FEFCFB"/>
<path d="M109.271 20.2109C106.771 20.2109 105.521 18.9609 105.521 16.4609V16.0109L107.896 14.8859H108.021V16.4609C108.021 17.4609 108.438 17.9609 109.271 17.9609H112.146C112.979 17.9609 113.396 17.4609 113.396 16.4609V15.4734C113.396 14.4734 112.979 13.9734 112.146 13.9734H109.796C107.296 13.9734 106.046 12.7193 106.046 10.2109C106.046 7.71094 107.296 6.46094 109.796 6.46094H111.259C113.759 6.46094 115.009 7.46927 115.009 9.48594L112.634 10.6109H112.509V10.2109C112.509 9.21094 112.092 8.71094 111.259 8.71094H109.796C108.963 8.71094 108.546 9.21094 108.546 10.2109C108.546 11.2193 108.963 11.7234 109.796 11.7234H112.146C114.646 11.7234 115.896 12.9734 115.896 15.4734V16.4609C115.896 18.9609 114.646 20.2109 112.146 20.2109H109.271Z" fill="#FEFCFB"/>
</svg>
