<svg width="50" height="48" viewBox="0 0 50 48" fill="none" xmlns="http://www.w3.org/2000/svg">
<g clip-path="url(#clip0_20_187)">
<path d="M25 0C11.193 0 0 10.7453 0 24C0 35.255 8.072 44.6995 18.961 47.2934V31.3344H13.806V24H18.961V20.8397C18.961 12.671 22.812 8.8848 31.166 8.8848C32.75 8.8848 35.483 9.18336 36.601 9.48096V16.129C36.011 16.0694 34.986 16.0397 33.713 16.0397C29.614 16.0397 28.03 17.5306 28.03 21.4061V24H36.196L34.793 31.3344H28.03V47.8243C40.409 46.3891 50.001 36.2707 50.001 24C50 10.7453 38.807 0 25 0Z" fill="#0A0A0A"/>
</g>
<defs>
<clipPath id="clip0_20_187">
<rect width="50" height="48" fill="white"/>
</clipPath>
</defs>
</svg>
