<svg width="50" height="45" viewBox="0 0 50 45" fill="none" xmlns="http://www.w3.org/2000/svg">
<path d="M26.8713 0.00114259C26.115 0.00114259 25.3666 0.0261431 24.6166 0.043331C24.1619 -0.0207327 23.8431 0.507402 23.8853 0.905846C23.8119 3.0137 23.9338 5.11998 23.8525 7.2294C23.7712 8.98724 22.6978 10.5591 21.3071 11.567C20.2649 12.2842 18.9696 12.4717 17.8243 12.942C18.0758 14.5717 18.7258 16.1905 20.0196 17.2561C22.5025 19.4515 26.7432 19.0546 28.712 16.3686C30.6823 14.1389 29.6557 11.0138 29.9667 8.34348C30.5682 7.34346 31.9183 8.06691 32.7089 7.31846C32.0011 4.71373 31.0261 2.0543 29.1213 0.0823941C28.3713 0.0261431 27.6229 -0.00667005 26.8666 0.00114259H26.8713ZM5.16154 0.0183305C1.10678 3.66371 -0.805753 9.50756 0.317704 14.8452C1.12397 19.1265 3.82558 22.9594 7.51158 25.2625C7.78815 24.7828 7.99284 24.2703 7.69909 23.7422C5.71311 17.8733 7.40689 10.9904 11.8351 6.67783C11.8663 4.62623 11.9242 2.559 11.8273 0.508964L11.4351 0.0605186C9.34287 -0.0457333 7.2522 0.0605187 5.16779 0.0183305H5.16154ZM42.4075 0.132395L41.9841 0.871471C42.5388 2.82619 43.2388 4.75435 43.4825 6.77158C44.6951 14.1608 42.645 22.0156 38.0387 27.8985C34.2527 32.8049 28.7838 36.3862 22.7634 37.8424C17.2211 39.219 11.271 38.78 5.95687 36.7112C5.81937 36.8752 5.52561 37.2096 5.38811 37.3799C10.9382 42.8566 19.0196 45.6488 26.7588 44.6629C33.1636 43.9801 39.2512 40.7816 43.4732 35.9237C47.5029 31.3658 49.8936 25.3594 49.9842 19.2718C50.2358 12.2264 47.4701 5.06373 42.4075 0.132395Z" fill="#0A0A0A"/>
</svg>
