<svg width="50" height="45" viewBox="0 0 50 45" fill="none" xmlns="http://www.w3.org/2000/svg">
<path d="M47.5 0C48.163 0 48.7989 0.263392 49.2678 0.732233C49.7366 1.20107 50 1.83696 50 2.5V20H45V5H5V40H20V45H2.5C1.83696 45 1.20107 44.7366 0.732233 44.2678C0.263392 43.7989 0 43.163 0 42.5V2.5C0 1.83696 0.263392 1.20107 0.732233 0.732233C1.20107 0.263392 1.83696 0 2.5 0H47.5ZM47.5 25C48.163 25 48.7989 25.2634 49.2678 25.7322C49.7366 26.2011 50 26.837 50 27.5V42.5C50 43.163 49.7366 43.7989 49.2678 44.2678C48.7989 44.7366 48.163 45 47.5 45H27.5C26.837 45 26.2011 44.7366 25.7322 44.2678C25.2634 43.7989 25 43.163 25 42.5V27.5C25 26.837 25.2634 26.2011 25.7322 25.7322C26.2011 25.2634 26.837 25 27.5 25H47.5ZM23.75 10L18.6425 15.1075L24.2675 20.7325L20.7325 24.2675L15.1075 18.6425L10 23.75V10H23.75Z" fill="#0A0A0A"/>
</svg>
